# xmcd CD database file
#
# Track frame offsets:
#	150
#	17722
#	34770
#	55654
#	74256
#	90441
#	105361
#	122839
#	140217
#	159214
#	177707
#
# Disc length: 2562 seconds
#
# Revision: 0
# Processed by: cddbd v1.5.2PL0 Copyright (c) Steve Scherf et al.
# Submitted via: CDex 1.70beta2
#
DISCID=8e0a000b
DTITLE=Josh Gracin - We Weren't Crazy
DYEAR=2008
DGENRE=Country
TTITLE0=Found
TTITLE1=We Weren't Crazy
TTITLE2=Invisible
TTITLE3=Let Me Fall
TTITLE4=I Don't Want To Live
TTITLE5=Favorite State Of Mind
TTITLE6=Telluride
TTITLE7=I Keep Coming Back
TTITLE8=Sweet September
TTITLE9=Livin' It Up
TTITLE10=Unbelievable (Ann Marie)
EXTD=YEAR: 2008
EXTT0=
EXTT1=
EXTT2=
EXTT3=
EXTT4=
EXTT5=
EXTT6=
EXTT7=
EXTT8=
EXTT9=
EXTT10=
PLAYORDER=
